<?xml version="1.0" encoding="utf-8"?>
<!-- Generator: Adobe Illustrator 19.2.0, SVG Export Plug-In . SVG Version: 6.00 Build 0)  -->
<svg version="1.1" id="Layer_1" xmlns="http://www.w3.org/2000/svg" xmlns:xlink="http://www.w3.org/1999/xlink" x="0px" y="0px"
	 viewBox="0 0 142.2 142.2" style="enable-background:new 0 0 142.2 142.2;" xml:space="preserve">
<style type="text/css">
	.st0{fill:none;stroke:#EA4866;stroke-width:0.75;stroke-miterlimit:10;}
	.st1{fill:#3D3C3E;}
	.st2{fill:url(#SVGID_1_);}
</style>
<path class="st0" d="M109.2,41.5c-7.7-17.1-24.9-29-44.9-29c-27.2,0-49.3,22-49.3,49.3C15,89,37.1,111,64.3,111
	c23.1,0,42.4-15.8,47.8-37.2"/>
<path class="st0" d="M108.2,42c-7.4-15.8-25.4-27.1-43.8-27.1c-20,0-36.9,14-43.1,31.9c-1.6,4.7-3.4,10.3-3.4,15.5
	c0,15.7,8.8,29.1,21,37.3c7.3,4.9,16.1,7.8,25.5,7.8c21.3,0,39.2-14.6,44.2-34.4"/>
<path class="st0" d="M105.9,42.9c-7.3-16.8-21.7-29.2-41.2-29.2c-21.1,0-39.5,13.7-45.9,32.6c-1.6,4.8-2.5,10-2.5,15.4
	c0,19.2,8.4,31.2,21.2,39.8c7.7,5.2,16.9,8.2,26.9,8.2c22.5,0,41.3-15.4,46.6-36.3"/>
<path class="st0" d="M107,42.5c-7.4-16.2-23.6-28.8-42.6-28.8c-20.5,0-37.2,13.3-43.5,31.7c-1.6,4.8-3.5,11.1-3.5,16.4
	c0,16.2,8.2,30.4,20.6,38.8c7.5,5.1,16.5,8,26.2,8c21.9,0,40.3-15,45.4-35.3"/>
<path class="st0" d="M104.7,43.4c-6.9-14.6-24-25-41-25c-18.4,0-33.3,13.1-39,29.5c-1.5,4.3-3.1,9.7-3.1,14.6
	c0,14.4,8.1,26.4,19.1,33.9c6.7,4.6,14.9,7.3,23.6,7.3c19.6,0,36-13.4,40.7-31.5"/>
<path class="st0" d="M103.7,43.9c-6.8-15.2-21.8-27.5-39.3-27.5c-18.9,0-35.6,13.9-41.4,30.8c-1.5,4.4-1.8,9.6-1.8,14.6
	c0,14.9,7.5,28,19,35.8c6.9,4.7,15.2,7.4,24.2,7.4c20.2,0,37.1-13.8,41.9-32.5"/>
<path class="st0" d="M102.5,44.3c-6.7-15.5-20-25.9-38-25.9c-19.5,0-36.2,11.4-42.2,28.8c-1.6,4.5-2.4,9.4-2.4,14.5
	c0,15.3,7.8,28.8,19.5,36.8c7.1,4.8,15.7,7.6,24.9,7.6c20.7,0,38.1-14.2,43-33.4"/>
<path class="st0" d="M101.4,44.8C95.2,32,79.6,22.9,64.6,22.9c-16.1,0-29.6,12.2-34.7,26.5c-1.4,3.9-2.7,7.9-2.7,12.3
	c0,12.7,6.4,23.9,16.1,30.6c6,4.1,13.2,6.5,21,6.5c17.3,0,31.8-11.8,35.9-27.7"/>
<path class="st0" d="M100.3,45.3c-6.3-13.8-20.2-24-36.2-24c-17.2,0-31.7,11.9-37.1,27.3c-1.5,4.1-2.2,8.5-2.2,13.2
	c0,13.6,6.8,25.6,17.3,32.7c6.3,4.3,14,6.9,22.3,6.9c18.4,0,33.9-12.6,38.3-29.6"/>
<path class="st0" d="M99.2,45.7L99.2,45.7C93,31.4,80.9,20.1,64.4,20.1c-17.8,0-33.6,12-39.1,27.9c-1.5,4.2-1.7,9.1-1.7,13.8
	c0,14,7,26.3,17.8,33.7c6.5,4.5,14.5,7.1,23,7.1c19,0,35-13,39.5-30.6"/>
<path class="st0" d="M92.4,48.5c-5-10.5-15.7-17.8-28.1-17.8c-13.4,0-24.8,8.5-29.2,20.3c-1.2,3.3-1.9,7-1.9,10.7
	c0,10.6,5.3,19.9,13.4,25.5c5,3.5,11.1,5.5,17.7,5.5c14.4,0,26.4-9.7,30-23"/>
<path class="st0" d="M93.9,47.9c-5.3-12.3-15.2-20.7-29.6-20.7c-15.6,0-28.8,8.5-33.7,22.4c-1.4,3.8-1.5,8.6-1.5,12.8
	c0,12.3,6.8,23,15,28.9c5.7,4.1,12.8,6.3,20.3,6.3C81,97.7,95,86.3,99.1,70.9"/>
<path class="st0" d="M95.2,47.4c-5.4-10.9-18-17.9-30.9-17.9c-13.9,0-25.8,8.8-30.3,21.2c-1.3,3.5-2.1,8.9-2.1,12.8
	c0,11,5.6,19,14,24.8c5.2,3.6,11.6,5.8,18.4,5.8c14.9,0,27.5-10.1,31.2-23.9"/>
<path class="st0" d="M96.6,46.8C91,34.8,78.2,26,64.2,26c-15,0-27.8,10.7-32.6,24c-1.3,3.7-2,7.6-2,11.8c0,11.8,5.9,22.3,14.9,28.5
	c5.6,3.9,12.4,6.2,19.8,6.2c16.1,0,29.6-11,33.6-25.8"/>
<path class="st0" d="M98,46.2c-5.8-11.2-20.2-18-33.6-18c-14.5,0-26.6,7.3-31.3,20.1c-1.3,3.6-2.2,9.4-2.2,13.4
	c0,11.3,5.6,21.4,14.3,27.4c5.4,3.8,12.1,6.1,19.2,6.1c15.5,0,28.6-10.6,32.4-24.9"/>
<path class="st0" d="M99.1,45.7c-6-13-19.1-21.3-34.6-21.3c-16.7,0-31.2,9.6-36.4,24.5c-1.4,4-1.7,9.1-1.6,13.6
	c0.2,10.4,6,23.9,16.1,30.8c6.2,4.2,13.6,6.7,21.7,6.7c17.8,0,32.8-12.2,37.1-28.7"/>
<g>
	<path class="st1" d="M22.3,129.7h-2l-2.9-7l-2.9,7h-2L8,119.3h2.5l3,6.9l2.8-6.9h2.1l2.9,6.9l2.9-6.9h2.5L22.3,129.7z"/>
	<path class="st1" d="M37.2,125.9L37.2,125.9L37.2,125.9c-0.3,0.8-0.6,1.4-1,1.9s-0.8,0.9-1.3,1.3c-0.5,0.3-1,0.6-1.6,0.7
		c-0.6,0.1-1.2,0.2-1.9,0.2c-0.9,0-1.8-0.1-2.5-0.4c-0.7-0.3-1.4-0.6-1.9-1.1s-0.9-1.1-1.2-1.8c-0.3-0.7-0.4-1.5-0.4-2.3
		c0-0.5,0.1-1.1,0.3-1.8c0.2-0.6,0.5-1.2,1-1.8c0.5-0.6,1.1-1,1.9-1.4s1.7-0.6,2.9-0.6c0.9,0,1.8,0.2,2.5,0.5
		c0.7,0.3,1.4,0.7,1.9,1.3c0.5,0.6,0.9,1.2,1.2,2s0.4,1.7,0.4,2.6h-9.6c0.2,0.8,0.5,1.4,1.2,1.9c0.6,0.5,1.5,0.7,2.6,0.7
		c0.7,0,1.2-0.1,1.6-0.2c0.4-0.2,0.7-0.3,0.9-0.6c0.1-0.1,0.2-0.2,0.3-0.3c0.1-0.1,0.2-0.3,0.3-0.4s0.2-0.2,0.2-0.3
		c0.1-0.1,0.1-0.1,0.1-0.1L37.2,125.9L37.2,125.9z M31.4,121c-0.9,0-1.6,0.2-2.2,0.6s-1,0.9-1.2,1.7h7c-0.3-0.8-0.7-1.3-1.3-1.7
		C32.9,121.2,32.2,121,31.4,121z"/>
	<path class="st1" d="M43.5,129.7h-5.6v-10.5h5.7c0.6,0,1.3,0.1,1.9,0.3c0.6,0.2,1.1,0.5,1.6,0.9s0.8,0.9,1.1,1.6s0.4,1.5,0.4,2.5
		c0,0.7-0.1,1.4-0.3,2s-0.5,1.2-0.9,1.7s-0.9,0.8-1.6,1.1C45.1,129.6,44.4,129.7,43.5,129.7z M43.5,121.3h-3.3v6.4h3.5
		c0.4,0,0.7-0.1,1.1-0.2c0.3-0.1,0.6-0.3,0.9-0.5c0.2-0.2,0.4-0.6,0.6-1c0.1-0.4,0.2-0.9,0.2-1.5s-0.1-1.1-0.2-1.5
		c-0.1-0.4-0.3-0.7-0.6-1s-0.6-0.4-0.9-0.5C44.3,121.3,43.9,121.3,43.5,121.3z"/>
	<path class="st1" d="M54.8,130c-1,0-1.8-0.2-2.6-0.5s-1.4-0.7-1.9-1.2s-0.9-1.1-1.2-1.8c-0.3-0.7-0.4-1.4-0.4-2.1s0.1-1.4,0.4-2.1
		c0.3-0.7,0.7-1.3,1.2-1.8s1.2-0.9,1.9-1.2c0.8-0.3,1.6-0.5,2.6-0.5s1.8,0.2,2.6,0.5s1.4,0.7,1.9,1.2s0.9,1.1,1.2,1.8
		c0.3,0.7,0.4,1.4,0.4,2.1s-0.1,1.4-0.4,2.1c-0.3,0.7-0.7,1.3-1.2,1.8s-1.2,0.9-1.9,1.2C56.6,129.9,55.8,130,54.8,130z M54.8,121
		c-0.6,0-1.2,0.1-1.7,0.3c-0.5,0.2-0.9,0.5-1.2,0.8s-0.6,0.7-0.7,1.1c-0.2,0.4-0.2,0.8-0.2,1.3c0,0.4,0.1,0.9,0.2,1.3
		c0.2,0.4,0.4,0.8,0.7,1.1c0.3,0.3,0.7,0.6,1.2,0.8c0.5,0.2,1,0.3,1.7,0.3c0.6,0,1.2-0.1,1.7-0.3c0.5-0.2,0.9-0.5,1.2-0.8
		s0.5-0.7,0.7-1.1s0.2-0.8,0.2-1.3c0-0.4-0.1-0.9-0.2-1.3c-0.2-0.4-0.4-0.8-0.7-1.1c-0.3-0.3-0.7-0.6-1.2-0.8S55.4,121,54.8,121z"/>
	<path class="st1" d="M67.1,130c-0.9,0-1.7-0.1-2.4-0.4c-0.7-0.3-1.4-0.6-1.9-1.1s-1-1-1.3-1.7s-0.5-1.4-0.5-2.2
		c0-0.9,0.2-1.7,0.5-2.4c0.3-0.7,0.8-1.3,1.3-1.8c0.6-0.5,1.2-0.8,1.9-1.1c0.7-0.2,1.5-0.4,2.3-0.4s1.5,0.1,2.2,0.3
		c0.7,0.2,1.3,0.5,1.8,0.9s0.9,0.9,1.2,1.4c0.3,0.6,0.5,1.2,0.5,1.9h-2.3c0-0.3-0.1-0.6-0.3-0.9c-0.2-0.3-0.4-0.6-0.7-0.8
		c-0.3-0.2-0.6-0.4-1-0.5S67.5,121,67,121c-0.6,0-1.2,0.1-1.7,0.3c-0.5,0.2-0.9,0.5-1.2,0.8c-0.3,0.3-0.6,0.7-0.7,1.1
		c-0.2,0.4-0.2,0.9-0.2,1.4c0,0.3,0.1,0.7,0.2,1.1c0.1,0.4,0.3,0.8,0.6,1.1c0.3,0.3,0.7,0.6,1.2,0.9c0.5,0.2,1.1,0.3,1.8,0.3
		c0.9,0,1.6-0.2,2.2-0.6s1.1-1.1,1.3-2.1H73c-0.2,0.9-0.5,1.7-0.9,2.3s-0.9,1.1-1.4,1.5s-1.1,0.7-1.7,0.8
		C68.4,129.9,67.7,130,67.1,130z"/>
	<path class="st1" d="M81.8,129.7v-4.5h-6.1v4.5h-2.3v-10.5h2.3v4h6.1v-4h2.3v10.5H81.8z"/>
	<path class="st1" d="M85.1,122.9c0.1-0.8,0.4-1.4,0.6-1.9c0.3-0.5,0.6-0.9,1.1-1.2s0.9-0.5,1.5-0.6s1.2-0.2,2-0.2
		c0.7,0,1.4,0,2,0.1s1.2,0.3,1.6,0.5c0.5,0.3,0.8,0.6,1.1,1c0.3,0.4,0.4,1,0.4,1.7v5.1c0,0.1,0,0.1,0,0.2s0,0.1,0,0.2
		c0.1,0,0.2,0,0.4-0.1c0.2-0.1,0.5-0.2,1-0.3v2.1c-0.4,0.1-0.8,0.2-1,0.3c-0.2,0-0.5,0.1-0.8,0.1c-0.5,0-0.9-0.1-1.2-0.3
		c-0.3-0.2-0.4-0.4-0.5-0.8c-0.3,0.3-0.7,0.5-1.1,0.6c-0.4,0.2-0.7,0.3-1.1,0.3c-0.4,0.1-0.7,0.1-1,0.2c-0.3,0-0.6,0-0.9,0
		c-0.2,0-0.4,0-0.7,0c-0.3,0-0.6-0.1-1-0.1c-0.3-0.1-0.7-0.2-1.1-0.3s-0.7-0.4-1-0.6c-0.3-0.3-0.5-0.6-0.7-1
		c-0.2-0.4-0.3-0.9-0.3-1.4c0-0.6,0.1-1.1,0.4-1.5s0.6-0.7,1-1c0.4-0.2,0.9-0.4,1.4-0.5s1-0.2,1.5-0.2l3.3-0.2c0.2,0,0.3,0,0.4,0
		s0.2,0,0.2-0.1c0.1,0,0.1-0.1,0.1-0.2s0-0.2,0-0.3c0-0.2,0-0.3-0.1-0.5c0-0.2-0.2-0.3-0.4-0.5c-0.2-0.1-0.5-0.2-0.8-0.3
		c-0.4-0.1-0.9-0.1-1.6-0.1c-0.5,0-0.9,0-1.2,0.1c-0.3,0.1-0.6,0.2-0.8,0.3s-0.4,0.3-0.5,0.6c-0.1,0.2-0.2,0.5-0.3,0.9L85.1,122.9
		L85.1,122.9z M93.3,125.6V125c-0.1,0-0.3,0-0.4,0.1c-0.1,0-0.3,0-0.4,0l-3.2,0.2c-0.8,0.1-1.3,0.2-1.6,0.4
		c-0.3,0.2-0.4,0.5-0.4,0.9c0,0.3,0.1,0.6,0.2,0.8c0.2,0.2,0.4,0.3,0.6,0.4s0.5,0.1,0.8,0.2c0.3,0,0.5,0,0.8,0c0.5,0,0.9,0,1.4-0.1
		s0.8-0.2,1.2-0.4c0.3-0.2,0.6-0.4,0.8-0.7C93.2,126.3,93.3,126,93.3,125.6z"/>
	<path class="st1" d="M105.2,129.7v-6.3c0-0.4,0-0.7-0.1-1s-0.2-0.6-0.4-0.8c-0.2-0.2-0.5-0.4-0.9-0.5s-0.8-0.2-1.4-0.2
		s-1.1,0.1-1.5,0.2c-0.4,0.2-0.8,0.4-1,0.6c-0.3,0.3-0.5,0.5-0.6,0.9c-0.1,0.3-0.2,0.7-0.2,1v6h-2.3v-10.5h2.3v0.7
		c0.4-0.3,0.9-0.5,1.4-0.7s1.2-0.3,1.9-0.3c0.8,0,1.6,0.1,2.1,0.3c0.6,0.2,1.1,0.4,1.4,0.7c0.4,0.3,0.7,0.6,0.9,0.9
		c0.2,0.3,0.4,0.7,0.4,1c0.1,0.3,0.2,0.6,0.2,0.9s0,0.5,0,0.7v6.3h-2.2C105.2,129.6,105.2,129.7,105.2,129.7z"/>
	<path class="st1" d="M132.4,125.9L132.4,125.9C132.5,125.9,132.5,125.9,132.4,125.9c-0.3,0.8-0.6,1.4-1,1.9s-0.8,0.9-1.3,1.3
		c-0.5,0.3-1,0.6-1.6,0.7c-0.6,0.1-1.2,0.2-1.9,0.2c-0.9,0-1.8-0.1-2.5-0.4c-0.7-0.3-1.4-0.6-1.9-1.1s-0.9-1.1-1.2-1.8
		c-0.3-0.7-0.4-1.5-0.4-2.3c0-0.5,0.1-1.1,0.3-1.8c0.2-0.6,0.5-1.2,1-1.8c0.5-0.6,1.1-1,1.9-1.4s1.7-0.6,2.9-0.6
		c0.9,0,1.8,0.2,2.5,0.5s1.4,0.7,1.9,1.3c0.5,0.6,0.9,1.2,1.2,2s0.4,1.7,0.4,2.6H123c0.2,0.8,0.5,1.4,1.2,1.9
		c0.6,0.5,1.5,0.7,2.6,0.7c0.7,0,1.2-0.1,1.6-0.2c0.4-0.2,0.7-0.3,0.9-0.6c0.1-0.1,0.2-0.2,0.3-0.3c0.1-0.1,0.2-0.3,0.3-0.4
		s0.2-0.2,0.2-0.3c0.1-0.1,0.1-0.1,0.1-0.1L132.4,125.9L132.4,125.9z M126.6,121c-0.9,0-1.6,0.2-2.2,0.6s-1,0.9-1.2,1.7h7
		c-0.3-0.8-0.7-1.3-1.3-1.7C128.1,121.2,127.4,121,126.6,121z"/>
	<g>
		<g>
			
				<rect x="118.1" y="122.9" transform="matrix(0.9253 -0.3792 0.3792 0.9253 -38.8422 54.5866)" class="st1" width="2.1" height="6"/>
			
				<rect x="113.5" y="123.8" transform="matrix(0.9253 -0.3792 0.3792 0.9253 -38.6427 53.5063)" class="st1" width="6" height="2.1"/>
		</g>
		<path class="st1" d="M115.5,127.5c-0.8,0.6-1.7,0.8-2.7,0.6c-0.9-0.1-1.6-0.5-2.2-1.2c-0.7-0.8-1-1.8-0.8-3
			c0.2-1.1,0.7-1.9,1.4-2.5c0.8-0.6,1.7-0.8,2.7-0.6c1,0.2,1.8,0.7,2.3,1.5c0.2,0.2,0.3,0.4,0.4,0.7l1.9-0.8
			c-0.2-0.4-0.4-0.7-0.6-1.1c-0.9-1.3-2.1-2-3.7-2.3c-1-0.2-2-0.1-2.9,0.3c-1,0.4-1.7,0.9-2.4,1.7c-0.6,0.8-1,1.7-1.2,2.7
			c-0.3,1.5,0.1,2.9,1,4.2c0.9,1.3,2.1,2.1,3.8,2.3c1.5,0.3,2.9-0.1,4.2-1c0.9-0.7,1.6-1.5,2-2.6l-1.5-1.8
			C117.1,126.3,115.9,127.3,115.5,127.5z"/>
	</g>
</g>
<linearGradient id="SVGID_1_" gradientUnits="userSpaceOnUse" x1="45.3991" y1="564.0667" x2="103.7708" y2="527.7756" gradientTransform="matrix(1 0 0 1 0 -452)">
	<stop  offset="0.1402" style="stop-color:#EA4866;stop-opacity:0"/>
	<stop  offset="0.6145" style="stop-color:#EA4866"/>
</linearGradient>
<path class="st2" d="M24.6,90.6c7.8,11.1,18.6,17.8,32.6,20c13.4,2.1,25.5-0.9,36.3-8.8c6.6-4.8,11.6-10.7,14.9-17.7l6.9,16.4
	l16.6-6.9l-20.2-48.3l-16.6,6.9l0,0L63.5,65.5l6.9,16.6l23.3-9.7c-3.6,8.4-9.2,13.1-11.9,15.1c-6.9,5.2-13.5,6.4-21.9,5
	c-7.4-1.2-13.4-4.2-18.4-9.7"/>
</svg>
